PathFileType	4	(X/Y/Z)	D:\TRACE\spotREDO_2-26-24\spot_Both_Motion_3_6-platform.trc
DataRate	CameraRate	NumFrames	NumMarkers	Units	OrigDataRate	OrigDataStartFrame	OrigNumFrames
100.00	100.00	      42	5	mm	100.00	4376	      7000
Frame#	Time	Left_Front			Right_Front			Left_Aft			Right_Aft			Post			
		X1	Y1	Z1	X2	Y2	Z2	X3	Y3	Z3	X4	Y4	Z4	X5	Y5	Z5	

4376	43.750	-690.59418	-65.15220	-588.23511	724.37244	-48.11475	-503.91153	-762.94818	66.25419	623.38116	806.91791	73.53615	628.75745	3.94493	516.14001	-1055.69824	
4377	43.760	-690.45880	-64.82144	-588.13470	724.53284	-47.90993	-503.83405	-762.64099	65.30431	623.42700	807.01862	73.01964	628.92871	4.59782	516.64520	-1055.13416	
4378	43.770	-690.17126	-64.54924	-588.00818	724.75934	-47.58337	-503.69928	-762.36078	64.97007	623.44617	806.99445	72.52891	629.11743	4.07526	517.53131	-1054.86157	
4379	43.780	-689.86096	-64.06973	-587.91943	724.73438	-46.96538	-503.63779	-762.35126	64.67825	623.65594	807.09723	72.13837	629.27972	4.21047	518.02026	-1054.34937	
4380	43.790	-689.64307	-63.66819	-588.00330	724.84241	-46.61243	-503.57272	-762.25189	64.42227	623.74670	807.38281	71.86205	629.54047	4.64136	518.52521	-1053.88037	
4381	43.800	-689.74561	-63.28553	-588.02179	724.92035	-46.43497	-503.59180	-762.09192	64.11100	623.83459	807.51538	71.66129	629.58759	4.58298	519.36182	-1053.66187	
4382	43.810	-689.92859	-62.94306	-587.99170	724.90521	-46.19387	-503.51016	-762.05188	63.75786	624.00537	807.63239	71.36729	629.53754	4.92550	519.99164	-1053.27234	
4383	43.820	-689.88147	-62.63812	-587.87109	725.02197	-45.97654	-503.52130	-761.90259	63.37560	624.15869	807.64105	71.06149	629.61487	5.14142	520.43134	-1052.94604	
4384	43.830	-689.49768	-62.32980	-587.66846	725.23523	-45.71930	-503.45132	-761.61316	62.97988	624.26599	807.76202	70.65388	629.67841	5.35062	520.92383	-1052.61780	
4385	43.840	-689.35413	-61.91211	-587.53516	725.30450	-45.57852	-503.39322	-761.49182	62.73869	624.32953	808.00006	70.20540	629.85236	5.28307	521.53015	-1052.22791	
4386	43.850	-689.23004	-61.54471	-587.56946	725.46118	-44.97365	-503.30310	-761.51917	62.34155	624.42395	807.99725	69.89803	629.90393	5.71489	522.05127	-1051.60022	
4387	43.860	-689.18781	-61.23830	-587.58008	725.69379	-44.72740	-503.18100	-761.46655	62.18306	624.41278	807.99646	69.67698	630.04291	5.45640	522.59119	-1051.42981	
4388	43.870	-689.09619	-61.16500	-587.64581	725.83276	-44.46544	-503.17493	-761.29358	61.84703	624.62805	808.00720	69.52158	630.17682	5.41318	523.14532	-1051.22754	
4389	43.880	-689.12958	-60.71557	-587.64801	725.96368	-44.36014	-503.23062	-760.98547	61.49734	624.79944	808.21210	69.32855	630.21924	5.67540	523.62134	-1050.88416	
4390	43.890	-688.92004	-60.43998	-587.50696	726.11810	-44.17371	-503.20093	-760.89697	61.36181	624.91437	808.49487	68.96017	630.26196	5.66140	524.09131	-1050.60327	
4391	43.900	-688.54803	-60.10372	-587.44495	726.33228	-43.93398	-503.11795	-760.69513	61.40295	625.00299	808.77454	68.75421	630.33331	5.91465	524.48627	-1050.44409	
4392	43.910	-688.16949	-59.97358	-587.43286	726.61340	-43.75566	-502.96115	-760.07648	60.81212	624.89453	809.03748	68.48710	630.50732	6.32274	524.88831	-1050.17419	
4393	43.920	-687.96820	-59.80130	-587.41919	726.83856	-43.64014	-502.90601	-760.18445	60.59683	624.88470	809.26050	68.18016	630.63232	6.52186	525.19299	-1049.89465	
4394	43.930	-687.88226	-59.67844	-587.41278	727.08667	-43.57061	-502.69443	-759.94696	60.31342	625.11963	809.45776	67.96628	630.69891	6.75667	525.43353	-1049.57263	
4395	43.940	-687.69800	-59.64038	-587.38232	727.30267	-43.36803	-502.62775	-759.76544	60.23849	625.25543	809.68054	67.77364	630.68835	7.18542	525.69458	-1049.84387	
4396	43.950	-687.37177	-59.94748	-586.85205	727.35504	-43.11243	-502.68597	-759.59937	59.85634	625.45166	809.78558	67.67986	630.72742	7.41389	526.07935	-1049.68079	
4397	43.960	-687.20673	-59.27630	-586.97150	727.48047	-42.71592	-502.61383	-759.43323	59.80735	625.48273	810.07477	67.59097	630.76837	7.95231	526.64697	-1049.34351	
4398	43.970	-686.82025	-59.09132	-587.02759	727.74536	-42.69915	-502.64240	-759.42273	59.58506	625.60889	810.49561	67.17516	630.84662	7.81181	527.07556	-1049.38672	
4399	43.980	-686.62665	-58.80471	-587.02142	727.89587	-42.34725	-502.78461	-759.18970	59.66535	625.48730	810.58130	66.94093	630.95532	7.92489	527.37482	-1049.16064	
4400	43.990	-686.55621	-58.47238	-586.96790	727.96509	-42.05856	-502.75018	-758.94427	59.07313	625.67285	810.70020	66.86392	631.03741	8.10447	527.64349	-1049.06995	
4401	44.000	-686.48779	-58.22353	-586.90784	728.18524	-41.83986	-502.53366	-758.74902	59.03141	625.70343	810.82233	66.58395	631.05945	8.11820	528.22949	-1048.53271	
4402	44.010	-686.36481	-57.94714	-586.84399	728.29871	-41.84229	-502.62930	-758.53540	58.94161	625.75635	810.97406	66.54200	631.10925	8.45540	528.73352	-1048.08154	
4403	44.020	-686.16296	-57.68974	-586.82239	728.52301	-41.59783	-502.65659	-758.21039	58.69975	625.84729	811.20972	66.44250	631.18127	8.71571	529.00385	-1047.70520	
4404	44.030	-685.94684	-57.44951	-586.75140	728.81482	-41.56347	-502.57385	-758.10413	58.65526	625.79987	811.44812	66.13167	631.29999	9.13708	529.30768	-1047.34753	
4405	44.040	-685.35516	-57.33843	-586.45416	729.16052	-41.55554	-502.46841	-757.92194	58.63009	625.79987	811.73029	65.87263	631.35010	9.38161	529.53491	-1047.11096	
4406	44.050	-685.18439	-57.20250	-586.39386	729.55109	-41.35606	-502.39542	-757.47345	57.97690	625.96667	812.02960	65.73153	631.49609	9.34412	529.71344	-1046.94800	
4407	44.060	-685.49451	-57.04790	-586.67474	729.69177	-41.14695	-502.31866	-757.20819	57.87037	626.05231	812.12891	65.56262	631.56555	9.08174	530.26892	-1046.52405	
4408	44.070	-685.18848	-56.93097	-586.69385	730.07001	-41.00239	-502.34897	-756.99536	57.71350	626.15222	812.36194	65.46515	631.74719	9.34088	530.65387	-1046.31702	
4409	44.080	-684.82483	-56.69381	-586.71942	730.16248	-40.86760	-502.39337	-756.92413	57.55951	626.23932	812.49689	65.33760	631.82074	9.90449	530.91919	-1046.15906	
4410	44.090	-684.43402	-56.54306	-586.65173	730.51709	-40.80088	-502.31433	-756.79785	57.34828	626.33167	812.73450	65.11729	631.82385	10.17254	531.06726	-1046.21350	
4411	44.100	-684.20709	-56.38355	-586.58392	730.74384	-40.65078	-502.45053	-756.60260	57.31623	626.38000	813.04309	64.97247	631.84052	10.03968	531.31903	-1046.39307	
4412	44.110	-683.87268	-56.31491	-586.65686	730.90118	-40.47509	-502.44678	-756.30304	57.18999	626.44897	813.37262	64.87199	631.79309	10.22527	531.42969	-1046.35632	
4413	44.120	-683.75171	-56.24988	-586.65552	731.02966	-40.26474	-502.37402	-756.00165	57.01516	626.51074	813.63702	64.76147	631.86163	10.51762	531.68170	-1046.14148	
4414	44.130	-683.55475	-56.18617	-586.63501	731.26855	-40.33227	-502.34650	-755.70490	56.79904	626.47455	813.93463	64.54229	631.93445	11.41938	531.83801	-1046.31921	
4415	44.140	-683.20044	-56.02462	-586.46600	731.49207	-40.13950	-502.26334	-755.48633	56.72679	626.47510	814.19696	64.31575	632.03497	11.57726	532.06805	-1046.05298	
4416	44.150	-682.87921	-55.85001	-586.35291	731.82269	-40.01810	-502.11456	-755.25848	56.58554	626.62427	814.47070	64.28167	632.07764	11.66976	532.51288	-1045.72473	
4417	44.160	-682.55994	-55.66449	-586.42883	732.11536	-39.87386	-502.10565	-755.02240	56.45996	626.65509	814.76392	64.08471	632.11017	11.64052	533.11066	-1044.90002	
